<svg xmlns="http://www.w3.org/2000/svg" viewBox="0 0 541.6 110"><path d="M395.3 22.9h131.8c5.2 0 9.5 4.2 9.5 9.5v48.8c0 5.2-4.2 9.5-9.5 9.5H395.3c-5.2 0-9.5-4.2-9.5-9.5V32.4c.1-5.2 4.3-9.5 9.5-9.5z" fill="#eff7ff"/><path d="M168.5 32.6V83h-13v-6c-3.6 4.5-9.1 7.4-16.4 7.4-13.4 0-24.5-11.6-24.5-26.6 0-15 11.1-26.6 24.5-26.6 7.4 0 12.8 2.8 16.4 7.4v-5.9h13zm-13 25.2c0-8.5-5.9-14.2-14-14.2-8 0-13.9 5.7-13.9 14.2S133.5 72 141.5 72s14-5.8 14-14.2zM180.2 9.5h13V83h-13V9.5zM259 57.8c0 15-11.1 26.6-24.6 26.6-7.4 0-12.7-2.7-16.3-7.4v26.1h-13V32.6h13v5.9c3.6-4.6 9-7.4 16.3-7.4 13.5.1 24.6 11.7 24.6 26.7zm-13 0c0-8.5-5.9-14.2-14-14.2-8 0-13.9 5.7-13.9 14.2S224 72 232 72s14-5.8 14-14.2zM319.4 32.6V83h-13v-6c-3.6 4.5-9.1 7.4-16.4 7.4-13.4 0-24.5-11.6-24.5-26.6 0-15 11.1-26.6 24.5-26.6 7.4 0 12.8 2.8 16.4 7.4v-5.9h13zm-13 25.2c0-8.5-5.9-14.2-14-14.2-8 0-13.9 5.7-13.9 14.2S284.4 72 292.4 72c8.1 0 14-5.8 14-14.2zM368.7 68.3c0 10.9-9.5 16.1-20.2 16.1-10.1 0-17.5-4.2-21.1-12l11.3-6.3c1.4 4.1 4.8 6.5 9.9 6.5 4.1 0 6.9-1.4 6.9-4.3 0-7.4-26-3.3-26-21 0-10.3 8.8-16 19.1-16 8.2 0 15.2 3.7 19.1 10.7l-11.1 6c-1.5-3.2-4.3-5.1-8.1-5.1-3.2 0-5.8 1.4-5.8 4.1.1 7.4 26 2.7 26 21.3z" fill="#333"/><g fill="#3d9dff"><path d="M419.3 46.6c-4.4 0-8.2 1.7-10.8 4.8V36.2h-4.8v40.5h4.8v-4.2c2.7 3.1 6.5 4.8 10.8 4.8 8.5 0 15.2-6.7 15.2-15.4s-6.7-15.3-15.2-15.3zM429.8 62c0 6-4.7 10.7-10.7 10.7S408.5 68 408.5 62c0-6 4.7-10.7 10.7-10.7S429.8 56 429.8 62zM452.6 46.6c-8.8 0-15.2 6.5-15.2 15.4s6.5 15.4 15.5 15.4c5.6 0 10.3-2.4 12.8-6.7l.5-.9-4.2-2.5-.5.9c-1.5 2.8-4.8 4.5-8.6 4.5-5.4 0-9.5-3.3-10.5-8.3h24.8v-1-.6-.7c0-10.1-7.6-15.5-14.6-15.5zm-10.3 13.1c.9-5.1 4.9-8.5 10.2-8.5 4.2 0 8.6 2.6 9.6 8.5h-19.8zM478.7 39.2l-4.8 1.4v6.6h-6.1v4.7h6.1v16.9c0 3 .8 5.1 2.4 6.5 1.4 1.2 3.3 1.8 6 1.8 1.1 0 2.4-.1 3.8-.3l.8-.1v-4.4l-1.1.1c-3 .3-5.3.4-6.3-.5-.5-.5-.8-1.5-.8-2.9V51.9h8.2v-4.7h-8.2v-8zM514 47.2v4.1c-2.7-3-6.5-4.7-10.8-4.7-8.5 0-15.2 6.7-15.2 15.4s6.7 15.4 15.2 15.4c4.3 0 8.1-1.7 10.8-4.7v4.1h4.8V47.2H514zm0 14.8c0 6-4.7 10.7-10.6 10.7-6 0-10.7-4.7-10.7-10.7 0-6 4.7-10.7 10.7-10.7 5.9 0 10.6 4.7 10.6 10.7z"/></g><linearGradient id="1587265953a" gradientUnits="userSpaceOnUse" x1="83.32" y1="109.76" x2="60.73" y2="78.87"><stop offset="0" stop-color="#3d9dff"/><stop offset="1" stop-color="#1479e8"/></linearGradient><path d="M7 79.1c.7-1.3 5.4-9.6 15.7-9.6 7.2 0 17.2 4.1 30.5 17.7 13 13.3 22.8 17.5 30 17.7 8.1.2 15.6-5.5 17.6-13.2 1.1-4.2.6-8.6-1.3-12.4L66.4 13.2C61 2.3 45.4 2.3 40 13.2L7 79.1z" fill="url(#1587265953a)"/><path d="M99.4 79.1c-.7-1.3-5.4-9.6-15.7-9.6-7.2 0-17.2 4.1-30.5 17.7-13 13.3-22.8 17.5-30 17.7-8.1.2-15.6-5.5-17.6-13.2-1.1-4.1-.6-8.5 1.3-12.4L40 13.2c5.4-10.9 21-10.9 26.4 0l33 65.9z" fill="#3d9dff"/></svg>