<svg xmlns="http://www.w3.org/2000/svg" viewBox="0 0 217.92 99.36"><defs><style>.cls-1{fill:#fefefe;}.cls-2{fill:#6c2825;}.cls-3{fill:#6e2b28;}.cls-4{fill:#843c33;}.cls-5{fill:#6b2724;}.cls-6{fill:#6b2623;}.cls-7{fill:#6b2624;}.cls-8{fill:#702e2b;}.cls-9{fill:#6c2724;}.cls-10{fill:#6d2a27;}.cls-11{fill:#6e2a27;}.cls-12{fill:#6d2926;}.cls-13{fill:#763734;}.cls-14{fill:#834946;}.cls-15{fill:#dccccb;}.cls-16{fill:#cfbab8;}.cls-17{fill:#8a5552;}.cls-18{fill:#fbc304;}.cls-19{fill:#fdfdfd;}.cls-20{fill:#f6f3f3;}.cls-21{fill:#f9f7f7;}</style></defs><title>aol</title><g id="Layer_2" data-name="Layer 2"><g id="Layer_1-2" data-name="Layer 1"><path class="cls-1" d="M109,99.34H1.1c-.24,0-.48,0-.72,0S0,99.31,0,99a4.31,4.31,0,0,0,0-.72V1.1C0,.86,0,.62,0,.38S.05,0,.38,0A4.31,4.31,0,0,0,1.1,0H216.82c.24,0,.48,0,.72,0s.42,0,.37.36a4.31,4.31,0,0,0,0,.72V98.26c0,.24,0,.48,0,.72s0,.42-.36.37a4.31,4.31,0,0,0-.72,0Z"/><path class="cls-2" d="M170.5,64.64a14.68,14.68,0,0,1-3-6.68,6.58,6.58,0,0,1,4.24-7c.15,0,.27-.16.42,0s0,.33-.18.44a11,11,0,0,0-2.07,2.14,4.89,4.89,0,0,0-.74,4.31c.73,2.6,2.34,4.69,3.87,6.83.34.49.86.33,1.32.33h17.49c3,0,6,0,9,0a1.35,1.35,0,0,0,1.5-1A29.84,29.84,0,0,0,205,55c0-.41.27-1-.14-1.2s-.82.22-1.15.49a1.51,1.51,0,0,1-1.64.22,20.81,20.81,0,0,0-2.19-.59c-.11,0-.24,0-.35-.06a1.2,1.2,0,0,1-.84-1.17c0-.42.62-.07,1,0a9.45,9.45,0,0,1,2.58.51,1.1,1.1,0,0,0,1.43-.35A9.84,9.84,0,0,1,207,50.33c.82-.37.87-.34.82.55a31.08,31.08,0,0,1-2,9.07A39.12,39.12,0,0,1,204,64.08c-.46.88-.46.9.58.9h9a3.47,3.47,0,0,1,.72,0c.4.08.26.42.28.68s0,.49-.35.5-.8,0-1.2,0H5c-.44,0-.51-.27-.51-.63S4.57,65,5,65h9.47c1.06,0,1.07,0,.59-.94a33.89,33.89,0,0,1-3.41-9.77,23.5,23.5,0,0,1-.39-3.56c0-.63.21-.64.68-.43a9.82,9.82,0,0,1,3.46,2.51,1.11,1.11,0,0,0,1.43.36A16.23,16.23,0,0,1,20,52.52c.44-.08.5.1.32.45-.26.51-.53.94-1.22,1a4.73,4.73,0,0,0-1.5.38A2.23,2.23,0,0,1,15,54.05c-.21-.21-.6-.46-.85-.29s-.14.67-.11,1a28.06,28.06,0,0,0,2.24,8.14C17.1,65,17.1,65,19.39,65c8.38,0,16.77,0,25.16,0a2,2,0,0,0,1.89-.93,35.79,35.79,0,0,0,2.81-4.58c1.44-3.14,1-5.26-1.59-7.58-.24-.21-.5-.4-.72-.63s-.84-.47-.69-.69.62.15.93.3a9.69,9.69,0,0,1,2,1.26,6.14,6.14,0,0,1,2.23,6.41,17.79,17.79,0,0,1-3,6.32c.36.26.77.11,1.16.11,8.09,0,16.19,0,24.29,0A5,5,0,0,0,76,64.64a1.47,1.47,0,0,1,.47,0,6.67,6.67,0,0,0,1.67.1c21,0,42-.13,63,0,9.4.09,18.79.1,28.18.15C169.67,65,170.25,65.32,170.5,64.64Z"/><path class="cls-3" d="M109.43,96.71H5c-.34,0-.52-.11-.51-.48s0-.65.49-.65H213.29c.24,0,.48,0,.71,0,.43,0,.55.19.55.58s-.09.6-.53.57-.63,0-1,0Z"/><path class="cls-4" d="M170.5,64.64c.15.14.51.3.08.46a2.73,2.73,0,0,1-1,0h-24.2q-33.92,0-67.84,0c-.45,0-1,.22-1.35-.23a3,3,0,0,1,2.08-.34h62.19c2.25,0,2.23,0,2.47-2.19A31.43,31.43,0,0,0,140.59,46C135.29,34,126.16,27,113.08,25.5,102.26,24.28,93,27.86,85.41,35.57a32.11,32.11,0,0,0-9.08,19.11,35.74,35.74,0,0,0,.07,8.83c.07.47.21.95-.16,1.37a14.61,14.61,0,0,1-3.79.25h-23a2.48,2.48,0,0,1-1.05-.07.09.09,0,0,1,0-.09.28.28,0,0,1,.07-.09,4.43,4.43,0,0,0,1.31.08h24.9c.45,0,.73-.12.54-.61-.12-.32,0-.75-.38-.95-.13-.42-.5-.64-.78-.94.82-.07.84-.6.8-1.26-.14-1.85.29-1.64-1.68-1.65H60.58c-.38,0-.8.16-1.14-.16.52-.5,1.19-.38,1.81-.38,3.87,0,7.74,0,11.6,0,.7,0,1.47.14,1.93-.63l0-2.79c0-.5-.6-.71-.71-1.17.63.08,1.07,0,1-.83a4.54,4.54,0,0,1,.24-1.41c.11-.38-.15-.49-.35-.66a10.54,10.54,0,0,1,.5-.94c.6-.77.56-1.76.94-2.61a3.66,3.66,0,0,1-.22-1.23c.16,0,.42.07.46,0a3.56,3.56,0,0,0,.89-2.61c.12-.42.5-.59.79-.85.32-.88,1.05-1.57,1.19-2.54a1.53,1.53,0,0,1,.5-.91,4,4,0,0,0,1.66-2.44,1.92,1.92,0,0,1,.74-.73,6.27,6.27,0,0,0,1.89-2.14,1,1,0,0,1,.75-.73,7.88,7.88,0,0,0,2.15-1.92,1.31,1.31,0,0,1,.74-.74,4.76,4.76,0,0,0,2.39-1.65,1.09,1.09,0,0,1,1-.49,23.88,23.88,0,0,0,2.13-1.11c.28-.12.28-.32.28-.55a3.31,3.31,0,0,1,1-.3c1,0,1.79-.7,2.73-.92a1.12,1.12,0,0,1,1.06-.41c.89-.36,2-.27,2.7-1,.33-.14.62-.36.93-.52.2.21.24.59.7.45a6.23,6.23,0,0,1,1.29-.23c.74-.05,1-.4.9-1.13.5.07.62.73,1.16.72l2.83,0a1.51,1.51,0,0,0,.63-1.46q0-6.1,0-12.2a1.71,1.71,0,0,0-.54-1.4c1-.39,1.09-.35,1.09.74,0,4.29,0,8.59,0,12.89,0,.27,0,.55,0,.83s.1.63.53.6a9,9,0,0,0,2.37-.05,1.27,1.27,0,0,1,1,.29l2.79.47a1,1,0,0,1,1.08.24,11.1,11.1,0,0,0,2.78.69,1,1,0,0,1,1,.52c.68.28,1.37.52,2,.84a.59.59,0,0,0,.8-.16,1.28,1.28,0,0,1,.75.76,8.14,8.14,0,0,0,2.61,1.4,1.49,1.49,0,0,1,.91.51,5.4,5.4,0,0,0,2.25,1.73,1.31,1.31,0,0,1,.88.66,5,5,0,0,0,2.2,1.89,1.9,1.9,0,0,1,.71.75c.29.94,1.13,1.47,1.71,2.18.5.11.6.53.71.93.42.61.85,1.22,1.26,1.83.16.24.34.43.66.35a6.19,6.19,0,0,1,.46.93c0,.94.69,1.56,1,2.34.13.27.44,0,.66.07.07.39-.07.79,0,1.18.32.86.65,1.71,1,2.56a1,1,0,0,1,.47,1,9.39,9.39,0,0,0,.72,2.65,2.38,2.38,0,0,1,.54,1,5.27,5.27,0,0,0,.12,2.75c.3.28.68,0,1,.12-.12.56-.76.72-.94,1.23l.23,2.79c.51.7,1.27.58,2,.59H158a2.43,2.43,0,0,1,1.83.37c-.33.35-.75.17-1.12.17-4.39,0-8.79,0-13.18,0-.82,0-1.16.22-1.1,1a2.55,2.55,0,0,1-.09.83c-.18.67.2.91.75,1a10.45,10.45,0,0,1-.79,1,.54.54,0,0,0-.21.41c-.17,1.13-.17,1.14,1,1.14h24.39C169.82,65,170.28,65.17,170.5,64.64Z"/><path class="cls-5" d="M26,80.78c.92,0,1.84,0,2.76,0,.56,0,.78-.17.76-.76,0-1.19,0-2.39,0-3.59,0-1.47-.12-1.57-1.59-2-.16,0-.33-.07-.33-.27s.2-.21.34-.21H33.4c.14,0,.34,0,.31.24s-.11.19-.24.21a5.58,5.58,0,0,0-.59.09,1.13,1.13,0,0,0-1,1.14c0,.43-.06.87-.06,1.31q0,4.54,0,9.09c0,.43,0,.87.07,1.31.07,1,.9,1,1.57,1.16.14,0,.32.07.27.29s-.18.17-.29.17H27.8c-.1,0-.19-.12-.28-.19.07-.09.14-.24.21-.24,2-.14,1.73-1.6,1.74-2.9,0-1,0-2,0-3,0-.51-.06-.81-.69-.8-1.88,0-3.76,0-5.63,0-.48,0-.61.19-.61.64,0,1.35,0,2.71,0,4.06S22.71,88,24,88.44c.18.06.46.06.44.29S24.18,89,24,89H18.71c-.15,0-.35,0-.39-.18s.21-.27.37-.33c1.49-.52,1.52-.51,1.53-2.06q0-5,0-10c0-1.45-.09-1.52-1.54-1.92-.15,0-.35,0-.36-.23s.24-.25.41-.25H24c.17,0,.45-.08.44.23s-.27.21-.45.26c-1.18.32-1.38.52-1.41,1.7s0,2.63,0,4c0,.62.27.72.79.71C24.22,80.76,25.09,80.78,26,80.78Z"/><path class="cls-6" d="M73.67,73.93a20.46,20.46,0,0,1,4.52.28c2,.52,3,1.68,3.09,3.44.08,1.93-.8,3.1-2.82,3.75-1.16.37-1.16.37-.38,1.34l3.61,4.46a3,3,0,0,0,1.71,1.23c.17,0,.43.07.39.34s-.24.19-.4.19c-.92,0-1.83,0-2.75,0-.54,0-.75-.4-1-.73-1.52-1.85-3-3.71-4.54-5.56a3.05,3.05,0,0,0-.46-.55c-.5-.39-1.06-.17-1.07.45,0,1.52,0,3,0,4.54,0,.94.63,1.19,1.4,1.32.19,0,.55,0,.48.34S75.14,89,75,89H69.8c-.19,0-.45,0-.47-.23s.26-.24.44-.3c1.27-.42,1.41-.53,1.42-1.8q0-5.2,0-10.41c0-1.28-.17-1.43-1.43-1.79-.18-.05-.45,0-.41-.3s.31-.19.48-.19Z"/><path class="cls-6" d="M117.46,81.48c0,5.32-4.16,8.71-9.29,7.57a7,7,0,0,1-3.86-2.45,8.72,8.72,0,0,1,0-10.34A7.53,7.53,0,0,1,112.41,74a7.27,7.27,0,0,1,5,6.46C117.48,80.77,117.46,81.13,117.46,81.48Z"/><path class="cls-6" d="M211.64,80.9h2.27c.18,0,.44-.09.46.21s-.16.24-.33.26c-1,.1-1.18.8-1.18,1.62,0,1.32,0,2.63,0,4a1,1,0,0,1-.56,1.08c-3.24,1.52-7.32,1.93-10.45-.42a7.67,7.67,0,0,1-2.53-8.48A7.43,7.43,0,0,1,206,73.7a10.89,10.89,0,0,1,4,.48c.64.2,1.29.41,1.84-.31.3-.39.54-.13.56.28.07,1.28.12,2.55.17,3.82,0,.19,0,.44-.24.46s-.35-.15-.44-.33c-.18-.36-.34-.72-.54-1.07a4.47,4.47,0,0,0-4.33-2.44,4.85,4.85,0,0,0-4.48,2.7,9.09,9.09,0,0,0-.23,7.76c1.16,2.72,4.24,4.11,7.57,2.76a1,1,0,0,0,.71-1.11c0-1.19,0-2.39,0-3.58s-.18-1.42-1.49-1.73c-.18,0-.47,0-.45-.26s.36-.21.56-.22C210,80.89,210.84,80.9,211.64,80.9Z"/><path class="cls-6" d="M185.54,82V86c0,1.24.19,2.34,1.75,2.5.14,0,.33.1.29.29s-.23.2-.39.2h-4.43c-.16,0-.37,0-.39-.2s.22-.3.39-.32c1.25-.1,1.7-.88,1.71-2,0-3.46.07-6.93,0-10.4,0-.88-.7-1.37-1.54-1.59-.21-.05-.59,0-.57-.27s.43-.21.67-.22c3.08-.12,3.08-.11,5,2.32s4.15,5.15,6.23,7.73c.14.16.23.47.51.37.08,0,.08-.35.08-.54,0-2.39,0-4.78,0-7.17,0-1.58-.2-1.77-1.72-2.23-.15,0-.35-.06-.35-.25s.28-.23.44-.23h4.31c.18,0,.44,0,.42.26s-.2.22-.36.23c-1.28.13-1.63,1-1.64,2.09q0,3.7-.05,7.41c0,1.51,0,3,0,4.54,0,.23.09.55-.14.65s-.48-.21-.64-.41l-7.44-9.2c-.5-.62-1-1.25-1.5-1.86-.17-.19-.27-.59-.59-.46s-.09.43-.09.65c0,1.4,0,2.79,0,4.19Z"/><path class="cls-5" d="M40.63,89c-1.8,0-3.6,0-5.39,0-.22,0-.56.11-.62-.19s.3-.29.5-.35c1.3-.4,1.37-.44,1.38-1.81q0-5.14,0-10.28c0-1.45-.07-1.48-1.54-1.92-.15,0-.35,0-.34-.25s.27-.22.44-.22H46c.44,0,.68.11.68.59,0,.71,0,1.43.07,2.15,0,.21,0,.41-.27.45S46.08,77,46,76.8a7.46,7.46,0,0,0-.26-.8,1.57,1.57,0,0,0-1.33-1.06,31.74,31.74,0,0,0-4.78-.15c-.51,0-.81.21-.8.79,0,1.47,0,3,0,4.43,0,.45.14.64.62.63,1.16,0,2.32,0,3.47,0a1.57,1.57,0,0,0,1.7-1.36,4,4,0,0,1,.15-.45c.06-.16.13-.29.33-.27s.24.18.25.34c0,.44,0,.88,0,1.32,0,.88,0,1.75,0,2.63,0,.29.17.75-.21.84s-.34-.42-.5-.66a1.91,1.91,0,0,1-.1-.34,1.36,1.36,0,0,0-1.31-1l-3.83-.06c-.4,0-.57.14-.56.56,0,1.67,0,3.35,0,5a.77.77,0,0,0,.8.85,14.9,14.9,0,0,0,5.11-.27,3.29,3.29,0,0,0,1.95-1.65c.17-.27.31-.56.5-.81a.37.37,0,0,1,.31-.11c.21,0,.25.2.21.35-.26,1-.51,2.09-.81,3.12-.13.45-.56.36-.91.36Z"/><path class="cls-5" d="M60.1,84c-.2,0-.4,0-.6,0-.79,0-1.88-.36-2.31.15a7.69,7.69,0,0,0-1.27,3.18c-.15.71.37,1,1,1.07.2,0,.47.08.47.29s-.26.24-.47.24H53.44c-.15,0-.34,0-.41-.17s.08-.31.23-.34c1-.22,1.3-1,1.63-1.77,1.54-3.54,3-7.09,4.57-10.63.28-.66.53-1.33.84-2s.55-.55.81,0c.36.71.65,1.45,1,2.18,1.53,3.46,3,6.92,4.57,10.37.35.79.64,1.66,1.67,1.86a.25.25,0,0,1,.21.35c0,.14-.19.14-.3.14h-5c-.11,0-.25,0-.29-.16s.12-.25.26-.29a2.66,2.66,0,0,1,.47-.11c.78-.07.86-.52.69-1.18-.26-1-.73-1.84-1.07-2.78-.13-.37-.43-.41-.77-.4C61.69,84,60.9,84,60.1,84Z"/><path class="cls-5" d="M124.63,73.93c1.76,0,3.51,0,5.27,0,.63,0,.84.19.81.81s0,1.27,0,1.91c0,.2,0,.41-.23.48s-.41-.16-.48-.39-.11-.46-.2-.69a1.56,1.56,0,0,0-1.3-1.09,30.84,30.84,0,0,0-4.9-.16.64.64,0,0,0-.71.74c0,1.51,0,3,0,4.54,0,.4.16.57.57.57,1,0,2.07,0,3.11,0a1.74,1.74,0,0,0,1.93-1.56c0-.25.09-.62.49-.52s.18.4.19.61c0,1.35,0,2.71,0,4.06,0,.18.05.44-.23.47s-.33-.19-.4-.37-.12-.46-.2-.68a1.33,1.33,0,0,0-1.32-1l-3.59-.06c-.41,0-.56.17-.55.57,0,1.67,0,3.35,0,5,0,.93.63,1.19,1.4,1.31.19,0,.55,0,.47.35s-.33.17-.52.17c-1.71,0-3.43,0-5.14,0-.2,0-.46,0-.49-.22s.24-.26.42-.32c1.39-.46,1.46-.53,1.47-2q0-5,0-10c0-1.44-.11-1.56-1.51-2-.15,0-.35,0-.36-.23s.24-.25.42-.25Z"/><path class="cls-5" d="M88.5,81.27c0-1.75,0-3.51,0-5.26,0-1.18.2-1.12-1.18-1.12l-1,0a2.29,2.29,0,0,0-2.47,2c0,.15-.08.3-.13.45s-.06.44-.34.41-.28-.32-.28-.55c0-.87.07-1.75,0-2.63,0-.54.23-.66.72-.66q5.75,0,11.49,0c.48,0,.74.1.73.65,0,.87,0,1.75,0,2.63,0,.21.09.51-.27.55s-.31-.22-.35-.4c-.5-2.58-1.85-2.41-3.79-2.48-.7,0-1,.13-1,.9,0,3.59,0,7.18,0,10.76,0,1.47.08,1.53,1.56,1.9.21,0,.57,0,.55.3s-.36.22-.58.22c-1.84,0-3.67,0-5.51,0-.15,0-.36,0-.4-.18s.21-.25.37-.3c1.64-.52,1.65-.51,1.67-2.19s0-3.34,0-5Z"/><path class="cls-6" d="M161.51,73.94H164c.13,0,.35-.07.35.18s-.22.19-.36.23c-1.34.35-1.49.53-1,1.75,1.29,3,2.63,5.88,3.95,8.81.06.13.06.36.23.33s.21-.22.26-.37c1.07-2.86,2.16-5.72,3.19-8.6.47-1.3.33-1.48-1-1.91-.14,0-.36,0-.32-.26s.24-.16.37-.16h3.71c.15,0,.34,0,.4.16s-.12.28-.27.31c-1.06.25-1.36,1.16-1.69,2-1.53,3.84-3,7.69-4.56,11.53-.17.43-.23,1.18-.63,1.19s-.59-.73-.79-1.17c-1.76-3.87-3.5-7.75-5.26-11.62-.39-.86-.73-1.8-1.88-2-.12,0-.22-.09-.21-.23s.22-.19.35-.19Z"/><path class="cls-6" d="M10.87,73.93c1.88,0,3.75,0,5.63,0,.61,0,.85.15.83.79,0,.84.07,1.67.11,2.51,0,.23.06.51-.28.55s-.3-.17-.38-.37c-1-2.42-1.22-2.51-3.88-2.53-.78,0-.91.26-.9,1,0,3.5,0,7,0,10.52a6.36,6.36,0,0,0,.1,1.07c.13.82.78.9,1.43,1,.22,0,.58,0,.59.28s-.35.25-.57.25H8.29c-.22,0-.57.06-.58-.24s.35-.24.57-.3c1.29-.35,1.4-.37,1.42-1.66.07-3.75,0-7.49.07-11.24,0-.46-.17-.66-.63-.63s-1,0-1.56,0a2.29,2.29,0,0,0-2.48,2c-.07.23-.1.47-.19.69a.31.31,0,0,1-.39.17c-.16,0-.17-.17-.17-.27,0-1,0-2.08.09-3.11,0-.55.46-.44.8-.44Z"/><path class="cls-5" d="M142.87,89c-1.79,0-3.59,0-5.38,0-.18,0-.46.08-.52-.17s.28-.3.47-.36c1.35-.43,1.41-.46,1.42-1.91,0-3.3,0-6.61,0-9.92,0-1.65,0-1.65-1.64-2.2-.15-.05-.31-.1-.27-.31s.17-.15.28-.15H143c.12,0,.26,0,.28.15s-.11.25-.27.3c-1.78.57-1.78.57-1.78,2.46,0,3.23,0,6.45,0,9.68,0,1.35.13,1.48,1.51,1.52a31,31,0,0,0,3.34-.14,3.59,3.59,0,0,0,3-1.87c.18-.31.35-.62.54-.92A.34.34,0,0,1,150,85c.13,0,.13.17.1.29-.32,1.11-.61,2.23-.95,3.33-.14.46-.59.31-.93.31C146.46,89,144.67,89,142.87,89Z"/><path class="cls-5" d="M46,55a5.4,5.4,0,0,1-1,2.77c-.16.25-.33.28-.57.06a19.67,19.67,0,0,0-5.26-3.25c-.13-.06-.35-.06-.29-.29s.26-.15.4-.15a12.25,12.25,0,0,1,4.18.92c.18.07.37.26.54.13s.12-.45.06-.67a3.59,3.59,0,0,0-1-1.45,17.7,17.7,0,0,0-3-2.16,60.25,60.25,0,0,1-5.8-3.8,12.94,12.94,0,0,1-3-3.21,7.38,7.38,0,0,1-.83-6.41c0-.13,0-.38.23-.34s.13.23.1.38c-.58,3.33.9,5.77,3.41,7.77a51.47,51.47,0,0,0,6.27,3.93,23.82,23.82,0,0,1,3.77,2.52A4.62,4.62,0,0,1,46,55Z"/><path class="cls-5" d="M188.94,39.65a8,8,0,0,1-2.44,5.9,20.9,20.9,0,0,1-4.1,3.27c-1.72,1.09-3.46,2.14-5.16,3.25a5.85,5.85,0,0,0-2.18,2.18c-.13.27-.35.63-.16.89s.58,0,.84-.12a12,12,0,0,1,3.95-.84c.15,0,.4,0,.43.1.11.28-.18.28-.33.36a20.08,20.08,0,0,0-5.18,3.17c-.37.33-.53.12-.73-.17a4,4,0,0,1,.24-5.16,11.38,11.38,0,0,1,2.81-2.22c1.74-1,3.51-2,5.25-3.09a18.2,18.2,0,0,0,4.07-3.12,6.88,6.88,0,0,0,2-6.1c0-.17-.1-.3.13-.35s.22.15.27.28A5.63,5.63,0,0,1,188.94,39.65Z"/><path class="cls-5" d="M40.84,33.25A10.85,10.85,0,0,1,48.24,38,1.35,1.35,0,0,1,48.16,40c-.34.31-.23.51,0,.8s.49.82.77,1.2a1.75,1.75,0,0,1,.24,1.38.73.73,0,0,1-1.31.47c-.24-.21-.46-.45-.69-.67a13.77,13.77,0,0,0-4.1-3,19,19,0,0,1-3.16-1.91,3.32,3.32,0,0,0-3.62,0c-1.2.64-1.58,1.93-1.18,3.56.13.48.52.9.37,1.46a4.33,4.33,0,0,1-1-1.23,3.33,3.33,0,0,1,.16-4.29,4.13,4.13,0,0,1,4.83-.81c1,.59,2,1.27,3,1.93a2.59,2.59,0,0,0,1.19.51,1,1,0,0,0,1-.46c.25-.38,0-.58-.22-.8a.54.54,0,0,1-.09-.75c.17-.3.47-.27.74-.24s.44.3.43.61a1.48,1.48,0,0,0,0,.47.86.86,0,0,0,.81.59.54.54,0,0,0,.59-.3c.15-.31-.09-.53-.25-.75a9.89,9.89,0,0,0-3.93-3.21c-.88-.38-1.79-.69-2.68-1C40.19,32.94,40.56,33.24,40.84,33.25Z"/><path class="cls-5" d="M183.81,42.32c0-.2.07-.4.12-.59a2.85,2.85,0,0,0-.87-3.34,3.5,3.5,0,0,0-3.91-.14c-1.53.92-3,1.87-4.66,2.66-1.2.58-2,1.77-3,2.67-.26.23-.42.77-.93.55a1.2,1.2,0,0,1-.64-1.29,4.12,4.12,0,0,1,.92-1.9c.22-.38.5-.63,0-1.07a1.25,1.25,0,0,1,0-1.75,10.87,10.87,0,0,1,7.34-4.85c.29-.06.63-.32.74.22-.89.35-1.79.67-2.66,1.06a9.72,9.72,0,0,0-3.74,3.08c-.19.25-.44.5-.28.85a.54.54,0,0,0,.72.25c.32-.12.68-.26.68-.71,0-.16,0-.32,0-.48,0-.54.44-.51.79-.43a.5.5,0,0,1,.36.82c-.31.41-.66.76-.14,1.2a1.29,1.29,0,0,0,1.57,0c1-.65,2.08-1.32,3.11-2a3.81,3.81,0,0,1,3.54-.41,3.34,3.34,0,0,1,2,5.07,8.62,8.62,0,0,1-.62.87C183.86,42.66,183.72,42.59,183.81,42.32Z"/><path class="cls-5" d="M178.23,73.93h2.86c.16,0,.37,0,.41.15s-.19.29-.39.33c-1.64.39-1.75.5-1.76,2.23q0,4.78,0,9.55c0,1.72.09,1.81,1.73,2.28.18,0,.46,0,.43.28s-.3.21-.5.21h-5.62c-.2,0-.47,0-.48-.23s.27-.22.45-.27c1.62-.45,1.69-.49,1.7-2.17,0-3.22,0-6.44,0-9.67a5.56,5.56,0,0,0-.18-1.41c-.19-.64-.79-.72-1.35-.78-.22,0-.59,0-.59-.26s.43-.22.66-.23C176.47,73.92,177.35,73.93,178.23,73.93Z"/><path class="cls-5" d="M154.25,73.94h3c.1,0,.27.07.29.14s-.09.29-.26.31c-.55.07-1.18,0-1.53.53a3.3,3.3,0,0,0-.35,2V86a7.6,7.6,0,0,0,0,1c.12,1.09.26,1.21,1.35,1.49.27.07.79,0,.74.35s-.54.2-.84.21c-1.71,0-3.42,0-5.14,0-.23,0-.55.05-.59-.24s.28-.21.46-.26c1.61-.44,1.69-.5,1.7-2.17,0-3.22,0-6.45,0-9.67,0-1.71-.11-1.8-1.79-2.21-.15,0-.35,0-.36-.23s.26-.24.42-.24h2.87Z"/><path class="cls-5" d="M15.56,37.61a19.16,19.16,0,0,1,8.06,2.53,33.35,33.35,0,0,1,11.49,11.1,5.39,5.39,0,0,1,.3.52c.06.1.09.23,0,.3a.24.24,0,0,1-.31-.08c-.3-.37-.59-.75-.9-1.11A33.43,33.43,0,0,0,23.32,42a17.84,17.84,0,0,0-8.41-2c-.69,0-.83-.24-.73-.82,0-.2,0-.4.06-.6C14.37,37.56,14.37,37.56,15.56,37.61Z"/><path class="cls-7" d="M204.9,39.63c.06.54-.41.39-.72.39a17.62,17.62,0,0,0-6.78,1.25,30.85,30.85,0,0,0-11.56,8.48c-.67.74-1.28,1.54-1.92,2.3-.11.14-.22.41-.43.25s0-.36.12-.52a22.29,22.29,0,0,1,2.23-3.25A30.55,30.55,0,0,1,198,38.91a17.48,17.48,0,0,1,5.56-1.3c1.1-.07,1.1,0,1.23,1.11C204.8,39,204.85,39.27,204.9,39.63Z"/><path class="cls-5" d="M202.86,45.28a27.25,27.25,0,0,0-8.2,1.45c-.23.06-.45.16-.69.21s-.6-.17-.73-.47.18-.39.37-.51A19.1,19.1,0,0,1,200,43.35a18.73,18.73,0,0,1,4.29-.33c.64,0,1,.18.87.89a4.72,4.72,0,0,0,0,.84c0,.4-.17.56-.58.54C204,45.25,203.42,45.28,202.86,45.28Z"/><path class="cls-5" d="M16.07,43a18.32,18.32,0,0,1,9.12,2.81c.25.15.81.19.59.69s-.63.51-1.11.34a32.28,32.28,0,0,0-6.14-1.46,19.14,19.14,0,0,0-3.93-.11c-.54,0-.66-.13-.68-.64C13.84,43,13.82,43,15.47,43Z"/><path class="cls-2" d="M82.47,36.64c0,.49-.28.7-.74.73q-5.67-4.48-11.33-8.94c-.38-.3-.51-.53-.15-1s.6-.14.86.07Z"/><path class="cls-2" d="M78.38,43.26c-.12.42-.27.81-.79.85L66.71,38.93c-.71-.34-1.42-.71-2.14-1-.38-.17-.59-.3-.36-.78s.45-.43.83-.24c1.72.85,3.44,1.67,5.16,2.49C72.92,40.67,75.65,42,78.38,43.26Z"/><path class="cls-2" d="M141.44,44.29c-.49-.39-.56-.79,0-1.18l11.77-5.74,1-.47c.31-.14.6-.39.85.14s0,.69-.39.89q-4.41,2.1-8.8,4.24Z"/><path class="cls-2" d="M144.14,51.51c-.66-.06-.53-.55-.54-1q7.1-1.62,14.2-3.22c.3-.07.67-.43.9.12s0,.81-.59,1c-3.15.68-6.28,1.43-9.43,2.14C147.17,50.87,145.68,51.31,144.14,51.51Z"/><path class="cls-2" d="M137.36,37.59l-.71-.93L147.59,28c.28-.22.56-.45.85-.65s.48.1.66.28.27.38,0,.59l-.83.67Z"/><path class="cls-2" d="M88,31.11c0,.49-.42.57-.74.74L78.18,20.47c-.26-.31-.4-.54,0-.87s.62-.16.87.16Z"/><path class="cls-2" d="M75.52,50.55c.25.54.08.84-.5.94-2.7-.46-5.35-1.2-8-1.77-2-.42-3.95-.91-5.93-1.36-.38-.08-.71-.14-.59-.67s.42-.54.88-.43Q68.43,48.93,75.52,50.55Z"/><path class="cls-2" d="M118,24.89a1.59,1.59,0,0,1-1.08-.24l3.18-14.16c.08-.35.11-.72.65-.63s.55.54.44,1Q119.62,17.87,118,24.89Z"/><path class="cls-2" d="M94.73,27c-.2.5-.52.61-1,.3q-3.11-6.45-6.22-12.9c-.18-.38-.21-.63.26-.84s.55-.1.73.27C90.58,18.24,92.78,22.57,94.73,27Z"/><path class="cls-2" d="M132,31.84c-.45,0-.67-.33-.88-.66L140,20.05c.21-.25.33-.68.77-.63s.67.6.27,1.11Q136.54,26.2,132,31.84Z"/><path class="cls-2" d="M125.38,27.54c-.33-.17-.74-.27-.75-.76,1.53-3.53,3.3-7,4.91-10.44.37-.79.75-1.57,1.13-2.36.15-.3.21-.68.75-.43s.46.51.26.93c-1.37,2.82-2.7,5.65-4.06,8.48C126.88,24.49,126.23,26.06,125.38,27.54Z"/><path class="cls-2" d="M102.15,24.15c-.09.56-.28.94-.93.52-1-4.6-2.11-9.2-3.14-13.8-.06-.27-.32-.59,0-.87s.84-.16,1,.44c.43,1.82.87,3.63,1.25,5.45C100.94,18.65,101.69,21.37,102.15,24.15Z"/><path class="cls-8" d="M74.78,58.35c0,1,0,1-1.06,1l-14.28,0c-.21-1-.21-1,.71-1H73.36C73.83,58.4,74.31,58.37,74.78,58.35Z"/><path class="cls-8" d="M159.85,59.37c-4.76,0-9.52,0-14.28,0-.74,0-1.16-.15-1-1H159C159.94,58.41,159.94,58.42,159.85,59.37Z"/><path class="cls-8" d="M109.12,8.88c.62-.07.93.1.92.83q0,6.69,0,13.38c0,.82-.36.95-1,.85q0-6.82,0-13.63C109.07,9.83,109.1,9.35,109.12,8.88Z"/><path class="cls-2" d="M17.28,48.3a26.37,26.37,0,0,1,4.85.53c.27.05.74-.06.68.41a.74.74,0,0,1-.78.59c-.71,0-1.42.13-2.14.19a13.15,13.15,0,0,0-3.83.75c-.55.22-.64,0-.79-.43-.71-2-.72-2,1.42-2Z"/><path class="cls-9" d="M204.25,48.77c-.19.6-.4,1.28-.64,2-.09.25-.29.15-.48.08a23,23,0,0,0-5.88-1c-.27,0-.58.05-.78-.2s-.29-.32-.29-.49.26-.25.45-.28a29,29,0,0,1,7-.52C203.89,48.35,204.25,48.22,204.25,48.77Z"/><path class="cls-3" d="M85.11,33.77a1.41,1.41,0,0,1-.75.73l-5-5c-.26-.26-.53-.46-.14-.87s.63-.27.95.07C81.78,30.38,83.45,32.07,85.11,33.77Z"/><path class="cls-10" d="M144.32,63.41c-.1-.62.1-1,.79-1,2.19.05,4.35.45,6.53.6.35,0,.84,0,.78.62s-.47.54-.86.5Z"/><path class="cls-11" d="M144.33,55.61c-.27-.86.4-1,.94-1.23l6.26-.76c.39,0,.8-.14.89.47s-.41.59-.76.64C149.22,55,146.78,55.32,144.33,55.61Z"/><path class="cls-12" d="M139.74,40.7c-.57-.11-.69-.44-.46-.93,2-1.27,3.95-2.54,5.92-3.83.34-.22.58-.32.87.12s.09.63-.26.84Q142.76,38.79,139.74,40.7Z"/><path class="cls-12" d="M80.07,39.81a.77.77,0,0,1-.5.91c-2-1.28-4.1-2.57-6.16-3.84-.38-.23-.45-.43-.21-.83s.52-.32.86-.1Z"/><path class="cls-12" d="M114.15,24.18c-.37,0-.79.15-1-.29.14-2.42.49-4.82.74-7.23,0-.36.1-.61.56-.51s.61.19.55.69C114.66,19.29,114.41,21.74,114.15,24.18Z"/><path class="cls-12" d="M142.88,47.89c-.34-.27-.3-.7-.47-1l6.87-2.41c.27-.09.57-.37.82.07s.25.77-.35,1C147.45,46.26,145.17,47.08,142.88,47.89Z"/><path class="cls-12" d="M74.09,54.39c.42.28,1.39.22.71,1.17l-7.12-.81-.24,0c-.43,0-.62-.22-.56-.7s.37-.43.69-.4l5.22.59C73.22,54.25,73.66,54.33,74.09,54.39Z"/><path class="cls-12" d="M74,62.46c1.09.09,1.09.09.78.94-2.37.26-4.73.52-7.1.75-.3,0-.73.24-.82-.35s.16-.72.63-.75C69.7,62.9,71.85,62.5,74,62.46Z"/><path class="cls-12" d="M91.35,29a1.25,1.25,0,0,1-1,.49l-3.72-5.93c-.21-.33-.5-.61,0-1s.67,0,.89.33Q89.47,25.94,91.35,29Z"/><path class="cls-10" d="M106.2,24c-1,.79-.8-.43-1.16-.72-.23-2-.47-4-.7-6,0-.12,0-.24,0-.36-.1-.47.15-.63.58-.68s.53.2.57.56Z"/><path class="cls-12" d="M128.9,29.45a.78.78,0,0,1-.91-.51q1.83-3,3.64-6c.23-.36.42-.66.93-.33s.19.68,0,1Z"/><path class="cls-12" d="M121.8,26.1c-.3-.23-.79-.12-1-.52l2.28-6.74c.13-.37.26-.61.75-.43s.43.5.31.84c-.74,2.14-1.49,4.27-2.23,6.4A3.28,3.28,0,0,0,121.8,26.1Z"/><path class="cls-12" d="M76.24,46.71c.56.32.53.75.22,1.23l-6.75-2.41c-.26-.1-.59-.13-.68-.42a.76.76,0,0,1,.18-.66c.19-.26.42-.15.64-.07Z"/><path class="cls-12" d="M98.52,25.68a2.86,2.86,0,0,1-1.06.41c-.77-2.26-1.54-4.52-2.29-6.78-.09-.26-.44-.59,0-.81s.76-.33,1,.35c.7,2.27,1.66,4.45,2.23,6.76C98.43,25.64,98.49,25.66,98.52,25.68Z"/><path class="cls-2" d="M134.94,34.48c-.48,0-.69-.3-.71-.75,1.66-1.71,3.33-3.41,5-5.13.25-.26.43-.41.76-.08s.35.55,0,.88C138.3,31.08,136.62,32.78,134.94,34.48Z"/><path class="cls-13" d="M178.82,33.49c-.18-.28-.49-.15-.74-.22.45-.31,1-.17,1.46-.27.24-.06.5-.17.44.26Z"/><path class="cls-14" d="M40.84,33.25c-.25.1-.57-.06-.77.22l-1-.2c-.06-.46.24-.32.48-.27C40,33.08,40.47,33,40.84,33.25Z"/><path class="cls-15" d="M180,33.26c-.06-.23-.29-.18-.44-.26a.54.54,0,0,1,.52-.19c.18,0,.54-.16.49.22S180.23,33.31,180,33.26Z"/><path class="cls-16" d="M39.59,33c-.17.08-.42,0-.48.27-.25,0-.54,0-.56-.25s.33-.16.51-.19A.6.6,0,0,1,39.59,33Z"/><path class="cls-17" d="M183.81,42.32l.29.3c-.1.23-.24.6-.49.42S183.61,42.53,183.81,42.32Z"/><path class="cls-18" d="M76.24,64.88a39.22,39.22,0,0,1-.49-7.26A33.81,33.81,0,0,1,113,25.09a33.82,33.82,0,0,1,29.93,27.33,34.15,34.15,0,0,1,.23,11.63c-.09.63-.33,1-1,.88-.2,0-.4,0-.6,0h-64c-.44,0-.88,0-1.32,0Z"/><path class="cls-1" d="M73.55,78.05c0-.8,0-1.59,0-2.38a.71.71,0,0,1,.75-.84,6.91,6.91,0,0,1,2.48.21,2.7,2.7,0,0,1,2.06,2.72A2.83,2.83,0,0,1,77,80.65l-.23.07c-1,.24-2.17.76-3,.27-.61-.37-.13-1.62-.21-2.47,0-.16,0-.32,0-.47Z"/><path class="cls-1" d="M114.92,81.4a11.48,11.48,0,0,1-.54,3.77,4.59,4.59,0,0,1-4.28,3.23,4.47,4.47,0,0,1-4.32-3.18,11.8,11.8,0,0,1,0-7.52,4.54,4.54,0,0,1,4.39-3.26,4.62,4.62,0,0,1,4.23,3.32,8.57,8.57,0,0,1,.38,1.49C114.86,80,114.87,80.68,114.92,81.4Z"/><path class="cls-19" d="M59.86,83.08c-.66-.1-1.73.37-2.12-.19s.44-1.34.72-2c.47-1.13.95-2.26,1.43-3.4,0-.1.09-.29.15-.3s.25.15.31.29c.72,1.72,1.44,3.43,2.15,5.15.16.39,0,.49-.38.48Z"/><path class="cls-20" d="M46.07,40c.29,0,.43,0,.53.16l1.22,1.76a.38.38,0,0,1-.08.53c-.21.24-.34,0-.47-.11-.5-.45-1-.9-1.48-1.38-.2-.2-.65-.37-.47-.68S45.88,40.07,46.07,40Z"/><path class="cls-21" d="M173.76,40.4c-.06.07-.12.18-.2.26-.6.58-1.21,1.15-1.82,1.72-.11.11-.23.23-.4.1s-.24-.27-.17-.41a9.28,9.28,0,0,1,1.33-2C172.7,39.87,173.73,40.13,173.76,40.4Z"/></g></g></svg>