<svg xmlns="http://www.w3.org/2000/svg" viewBox="0 0 685.24 102.87"><defs><style>.cls-1{fill:#262262;}.cls-2{fill:#93c644;}.cls-3{fill:#63638b;}.cls-4{fill:#70935c;}.cls-5{fill:#312d6a;}.cls-6{fill:#282463;}.cls-7{fill:#94c644;}.cls-8{fill:#272363;}.cls-9{fill:#272362;}.cls-10{fill:#94c745;}.cls-11{fill:#2e2a67;}</style></defs><title>hansa</title><g id="Layer_2" data-name="Layer 2"><g id="Layer_1-2" data-name="Layer 1"><path class="cls-1" d="M89.06,0A3.6,3.6,0,0,0,89,1.53q0,49.74,0,99.48c0,1.75,0,1.75-1.8,1.75H81.38a2.82,2.82,0,0,0-1.41-.12l-29.77,0a.41.41,0,0,1-.05-.19q0-6.11,0-12.19c.39-.43.91-.22,1.36-.22q8.8,0,17.61,0c.43-.28.24-.72.24-1.09q0-18.27,0-36.55c0-.36.19-.8-.24-1.09l-4.42,0-19.81,0c-.13-.1-.19,0-.22.09v10c0,.12.09.19.22.09H55.48l.22.17.06,0c0,.52,0,1,0,1.54q0,8.45,0,16.88l-9.33-.07-.24-.14H33.65v0l-.17-.21q0-8.26,0-16.54c.31-.43.17-.92.17-1.39l0-38.5v0H55.71q0,8.36,0,16.71c0,.4-.23.88.24,1.2H69.13c.48-.32.25-.8.25-1.2q0-12.76,0-25.54c0-.41.19-.88-.23-1.23h0c-.18-.29-.48-.23-.75-.23l-18,0a1.17,1.17,0,0,0-.2-.06L50.2,0Z"/><path class="cls-2" d="M55.48,61.32H44.91l-.22-.09v-10l.22-.09,19.81,0,4.42,0V89.94q-8.8,0-17.61,0c-.45,0-1-.21-1.36.22s-.16.84-.16,1.26c0,2.94,0,5.88,0,8.82a5,5,0,0,0,.14,2.11.41.41,0,0,0,.05.19c0,.07,0,.13,0,.19l-11.49,0a.84.84,0,0,0-.05-.17.18.18,0,0,0,0-.19c.07-4.07.11-8.14,0-12.21,0-.12,0-.17-.14-.14-.51,0-1-.07-1.54-.07l-16.71,0q0-38.61,0-77.21c.87,0,1.75,0,2.62,0l15.62,0c.13,0,.2,0,.16-.18V.23L38.68,0H50c0,3.82,0,7.64,0,11.45,0,.41-.2.89.26,1.21a1.17,1.17,0,0,1,.2.06c.34.32.76.19,1.14.19H69.15q0,14,0,28H56q0-8.28,0-16.56c0-.45.19-1-.24-1.35h0c-.3-.38-.73-.24-1.11-.24H34.76c-.38,0-.81-.14-1.11.24v0c-.38.36-.2.83-.2,1.24q0,8.24,0,16.47,0,11.09,0,22.18,0,8.26,0,16.54c0,.14,0,.21.17.21v0a1.23,1.23,0,0,0,.44.16H46.24l.11,0,9.33.07c.43-.28.27-.71.27-1.09q0-8.14,0-16.3c0-.35.09-.73-.19-1l-.06,0C55.7,61.34,55.63,61.28,55.48,61.32Z"/><path class="cls-1" d="M38.45,12.63l-15.62,0c-.87,0-1.75,0-2.62,0-.41.35-.22.82-.22,1.23q0,37.36,0,74.74c0,.41-.17.88.21,1.24l16.71,0c.51,0,1,0,1.54.07a.32.32,0,0,0,.14.14c.13,4.07.09,8.14,0,12.21l-.17.18c-.51,0-1,0-1.55,0H8.66a2.82,2.82,0,0,0-1.41.12c-2.39.09-4.8-.14-7.19.12v-.47c.44-.44.22-1,.22-1.48Q.31,50.46.3,0H38.44l.17.23V12.45Z"/><path class="cls-3" d="M.3,0q0,50.46,0,100.92c0,.49.22,1-.22,1.48q0-50.67,0-101.32C.08.73-.2.26.3,0Z"/><path class="cls-4" d="M50.23,12.66c-.46-.32-.26-.8-.26-1.21C50,7.64,50,3.82,50,0h.24Z"/><path class="cls-5" d="M38.61.23,38.44,0h.24Z"/><path class="cls-6" d="M166.91,35.42q0,16.52,0,33c0,1-.25,1.26-1.24,1.25-6.24,0-12.48-.05-18.71,0-1,0-1.22-.34-1.22-1.29,0-7.41,0-14.83.05-22.24,0-1-.25-1.25-1.25-1.25q-9.83.08-19.66,0c-.94,0-1.2.23-1.19,1.17,0,7.42,0,14.83.05,22.25,0,1.14-.35,1.35-1.4,1.34q-9.28-.06-18.59,0c-.94,0-1.19-.24-1.19-1.18q0-33.07,0-66.14c0-.92.22-1.2,1.18-1.19q9.4.08,18.83,0c1,0,1.16.29,1.16,1.2,0,7.41,0,14.83,0,22.24,0,.92.21,1.22,1.18,1.21q9.9-.06,19.79,0c.92,0,1.13-.26,1.12-1.14,0-7.42,0-14.83,0-22.25,0-1,.19-1.27,1.22-1.26q9.42.08,18.83,0c.91,0,1.12.24,1.12,1.12Q166.89,18.87,166.91,35.42Z"/><path class="cls-7" d="M440.28,20.34c0-1.57,0-2.95,0-4.34,0-.7.16-1,.92-1q9.3,0,18.59,0c.94,0,.9.47.9,1.11q0,9.69,0,19.38c0,9.25,0,18.49-.07,27.74a35.15,35.15,0,0,1-2.06,11.47c-2.74,7.75-8.29,12.4-16.24,14-11.43,2.28-22.63,1-33.59-2.8-.77-.27-.93-.63-.76-1.41.8-3.7,1.59-7.4,2.25-11.12.2-1.09.6-1.24,1.58-1a87.43,87.43,0,0,0,17.44,2.11,15.64,15.64,0,0,0,3.68-.37,8.16,8.16,0,0,0,5.89-4.81,19.79,19.79,0,0,0,1.46-7.6,19.51,19.51,0,0,1-7.1,4.45,27.78,27.78,0,0,1-15.7.35c-5.87-1.64-9.56-5.71-11.71-11.25s-2.54-11.38-2.28-17.27A42.7,42.7,0,0,1,405,27.69c2.07-7.06,6.32-11.9,13.84-13.3a23.76,23.76,0,0,1,17.44,3.33C437.57,18.52,438.81,19.38,440.28,20.34Zm0,21.24c0-1.75,0-3.5,0-5.26a1.42,1.42,0,0,0-.37-1.2c-2.1-1.89-4.35-3.57-7.26-3.91-4.65-.55-7.71.95-8.69,5.08a21.17,21.17,0,0,0,0,9.6c.73,3.22,2.77,5.16,5.68,5.54a11.2,11.2,0,0,0,9.79-3.09,2.28,2.28,0,0,0,.83-1.85C440.24,44.85,440.28,43.22,440.28,41.58Z"/><path class="cls-7" d="M650.67,22.19l2.19-1.58c3.81-2.75,7.76-5.22,12.47-6.12a21.66,21.66,0,0,1,10.43.45c4.84,1.45,7.27,5,8.44,9.7a36.82,36.82,0,0,1,1,9c0,11.56,0,23.12,0,34.68,0,1.14-.35,1.37-1.41,1.36-5.87-.05-11.75-.06-17.63,0-1.21,0-1.41-.38-1.41-1.48,0-9.57,0-19.14,0-28.71a13.29,13.29,0,0,0-.35-3.08,3.76,3.76,0,0,0-3.92-3.17c-3.22-.18-5.77,1.21-8.09,3.26a4.9,4.9,0,0,0-1.82,4.11c.11,9.25,0,18.5.08,27.75,0,1.07-.28,1.32-1.33,1.31q-8.93-.08-17.87,0c-1,0-1.24-.31-1.24-1.28q0-26.07,0-52.15c0-.87.13-1.25,1.15-1.24q9.06.08,18.11,0c1,0,1.19.34,1.16,1.23C650.62,18.14,650.67,20,650.67,22.19Z"/><path class="cls-1" d="M254.06,22.2l1.88-1.38c3.89-2.84,7.92-5.4,12.75-6.33a21.71,21.71,0,0,1,10.32.4c4.68,1.35,7.19,4.75,8.43,9.26a34.09,34.09,0,0,1,1.15,9c0,11.76,0,23.52,0,35.28,0,1-.17,1.28-1.22,1.28-6-.06-12.07,0-18.1,0-.91,0-1.12-.23-1.12-1.12q.06-13.92,0-27.86a28.7,28.7,0,0,0-.22-3.46c-.4-3.12-2.31-4.42-5.88-4-3.28.44-5.66,2.41-7.8,4.74-.38.41-.23.91-.23,1.37q0,14.48,0,28.95c0,1-.14,1.35-1.27,1.34-6-.07-12.07,0-18.11,0-.84,0-1-.22-1-1.05q0-26.25,0-52.51c0-.89.22-1.12,1.12-1.11q9,.06,18.1,0c1.06,0,1.25.33,1.21,1.28C254,18.18,254.06,20.08,254.06,22.2Z"/><path class="cls-8" d="M206.16,63.45a25.56,25.56,0,0,1-6.3,5.15c-4.07,2.26-8.46,2.36-12.93,1.87a21.06,21.06,0,0,1-4.44-1,11.88,11.88,0,0,1-7.87-7.9,24.94,24.94,0,0,1-.79-12.27c1.09-6,5-9.5,10.61-11.32a38.9,38.9,0,0,1,11.34-1.6c3.16-.06,6.32,0,9.47,0,.76,0,.94-.21.93-.94-.06-4-2-6-6.1-6a73.6,73.6,0,0,0-14,1.55c-1.13.2-2.29.35-3.4.66-.71.2-.83-.13-.94-.63-.9-4-1.79-8-2.7-12-.11-.48-.12-.79.5-1,8.23-2.14,16.45-4.33,25.07-4.07a36.44,36.44,0,0,1,9.22,1.3c6.43,1.88,10.23,6.18,11.74,12.61a34.38,34.38,0,0,1,.85,7.82c0,10.89,0,21.77,0,32.66,0,1-.25,1.32-1.31,1.31q-8.88-.09-17.75,0c-1,0-1.29-.28-1.23-1.26C206.22,66.87,206.16,65.32,206.16,63.45ZM201.52,46a31.12,31.12,0,0,0-4.5.21c-2.77.32-4.42,1.8-4.57,4-.19,2.93,1.24,5,4.05,5.62,3.59.74,6.65-.56,9.39-2.79.3-.24.27-.55.27-.87,0-1.79,0-3.58,0-5.37,0-.72-.26-.87-.91-.85C204.12,46,203,46,201.52,46Z"/><path class="cls-9" d="M377.75,63.39c-3.07,3.32-6.24,5.83-10.37,6.75a24.28,24.28,0,0,1-14.47-1.09,11.48,11.48,0,0,1-6.9-7.92,25,25,0,0,1-.47-12.52c1.14-5,4.39-8.26,9.12-10.11a36.3,36.3,0,0,1,12.69-2.08c3.11-.07,6.23,0,9.35,0,.78,0,1.1-.1,1-1-.34-4.22-2.08-5.93-6.32-6-5.55,0-11,1-16.37,2-1.56.3-1.56.33-1.93-1.27-.84-3.68-1.66-7.37-2.53-11-.16-.69,0-1,.7-1.16,7-1.76,14-3.68,21.25-3.95a42.85,42.85,0,0,1,11.89,1c7.31,1.8,11.44,6.53,12.87,13.78a39.22,39.22,0,0,1,.69,7.48c0,10.73,0,21.45,0,32.17,0,.88-.13,1.24-1.14,1.23-6-.06-12,0-18,0-.87,0-1.2-.17-1.15-1.11C377.81,67,377.75,65.34,377.75,63.39Zm0-13.94c0-.92,0-1.84,0-2.75,0-.47-.1-.74-.66-.73a68.92,68.92,0,0,0-8.74.25c-1.8.26-3.42.93-4.12,2.82a5.06,5.06,0,0,0,3.44,6.71c2.83.76,5.42,0,7.92-1.37,1.56-.88,2.59-1.92,2.17-3.86A5.44,5.44,0,0,1,377.76,49.45Z"/><path class="cls-10" d="M549.57,47.82c-5.24,0-10.47,0-15.71,0-1,0-1.15.22-.89,1.15,1.12,3.95,3.82,5.94,8.12,6.09a40.18,40.18,0,0,0,19.09-4.25c.85-.41,1.22-.28,1.62.56,1.56,3.23,3.16,6.43,4.78,9.63.34.67.35,1.07-.36,1.55-5.61,3.8-11.61,6.68-18.39,7.69a40,40,0,0,1-16.51-.72c-9.23-2.5-15-8.43-17.32-17.67a37.78,37.78,0,0,1,.53-20.42c2.94-9.54,9.62-14.95,19.32-16.79a34.86,34.86,0,0,1,16.37.56c9.26,2.71,14.43,9.09,16.2,18.39A48.87,48.87,0,0,1,566.67,47c-.07.85-.57.8-1.15.8Zm-8.75-10.89h7.42c.54,0,1,0,1-.78a8.06,8.06,0,0,0-11.75-7.39c-3,1.48-4,4.22-4.7,7.22-.18.79,0,1,.76,1C536,36.91,538.39,36.93,540.82,36.93Z"/><path class="cls-10" d="M608.41,47.82c-5.28,0-10.56,0-15.83,0-1,0-1.13.32-.9,1.18,1.06,3.89,3.86,5.93,8.14,6.07a39.49,39.49,0,0,0,18.75-4.12c1.13-.55,1.59-.35,2.11.76,1.45,3.1,3,6.16,4.56,9.21.39.77.38,1.19-.4,1.71-6.87,4.64-14.28,7.71-22.7,8A38.42,38.42,0,0,1,588.32,69a22.29,22.29,0,0,1-15.11-15.4,37.12,37.12,0,0,1,.58-23.72,22.08,22.08,0,0,1,14.47-14.08,34.38,34.38,0,0,1,20.64-.57c9.45,2.68,14.58,9.26,16.29,18.7a49,49,0,0,1,.22,12.86c-.06.8-.35,1.08-1.18,1.07C619,47.8,613.68,47.82,608.41,47.82Zm-8.75-10.89h7.42c.43,0,.82.06.87-.63.2-2.94-1.88-6.62-4.56-7.67-3.7-1.45-9-1-11.09,4.59-.32.85-.51,1.75-.8,2.62s0,1.12.86,1.1C594.79,36.9,597.23,36.93,599.66,36.93Z"/><path class="cls-9" d="M318.11,14.11a82.71,82.71,0,0,1,23,3.31c.82.23.86.52.6,1.24q-2.16,6.19-4.23,12.42c-.24.71-.52.76-1.2.56a83.68,83.68,0,0,0-14.62-3.06,21.33,21.33,0,0,0-3.83-.11c-1.43.1-2.35.76-2.55,1.76s.32,2,1.75,2.64a80,80,0,0,0,8.61,2.51,48.76,48.76,0,0,1,8.54,3c6.59,3.3,8.51,8.09,8.27,14.7-.37,9.84-7,15.32-15.85,17-7,1.33-13.91.3-20.71-1.53A76.24,76.24,0,0,1,294,64.24c-.78-.36-.94-.69-.63-1.52q2.21-5.86,4.25-11.78c.28-.79.51-.92,1.31-.56a73.35,73.35,0,0,0,15.48,5.24,19.64,19.64,0,0,0,5.13.38c1.58-.1,2.44-.65,2.62-1.63s-.42-1.86-1.86-2.46c-2.95-1.23-6.08-1.91-9.12-2.86A44.84,44.84,0,0,1,305,46.66c-5.15-2.49-8.19-6.44-8.73-12.21-.53-5.55.43-10.66,4.43-14.82,3.41-3.55,7.76-5.07,12.55-5.49C314.82,14,316.47,14.11,318.11,14.11Z"/><path class="cls-7" d="M489.19,24.9A49.27,49.27,0,0,1,494,18.28a12.48,12.48,0,0,1,9.69-4.18c1.91,0,3.83.08,5.74.24.56.05.83.1.78.81q-.68,9.52-1.25,19.07c-.05.86-.35.9-1.1.86-3.47-.18-6.95-.46-10.38.33a10.7,10.7,0,0,0-8.25,10.41c0,7.53,0,15.07,0,22.6,0,1-.24,1.27-1.24,1.26-6-.05-12,0-18,0-.88,0-1.24-.13-1.24-1.15q0-26.19,0-52.38c0-.92.27-1.13,1.15-1.12q9.06.06,18.11,0c.9,0,1.24.18,1.21,1.16C489.14,19.09,489.19,22,489.19,24.9Z"/><path class="cls-6" d="M664.78,91.48q0-4.91,0-9.81c0-.39-.21-1,.54-.93,3.63.13,7.29-.4,10.88.36a10.24,10.24,0,0,1,8.14,11c-.43,5.77-4.24,9.72-9.74,10.11-3,.21-6,0-9,.12-.71,0-.86-.24-.85-.9C664.8,98.1,664.78,94.79,664.78,91.48Zm5.08,0c0,1.08,0,2.15,0,3.23s-.54,2.81.22,3.43,2.45.24,3.72.16a5.14,5.14,0,0,0,4.66-3.21,8.9,8.9,0,0,0,.16-6.87,5.25,5.25,0,0,0-5-3.57c-1,0-1.92,0-2.87,0-.7,0-.89.21-.87.88C669.89,87.51,669.86,89.51,669.86,91.5Z"/><path class="cls-11" d="M646.35,91.46c0-3.23,0-6.45,0-9.68,0-.83.22-1.08,1.06-1.07,4,0,7.91,0,11.86,0,.73,0,1,.12,1,1,0,3,0,3-3,3-1.68,0-3.35,0-5,0-.61,0-.85.15-.83.8,0,1.11,0,2.23,0,3.34,0,.65.24.81.85.8,1.67,0,3.35,0,5,0,.74,0,.94.22.94.94,0,2.8.06,2.8-2.76,2.8-1.08,0-2.16,0-3.24,0-.62,0-.84.16-.82.79,0,1.12.06,2.24,0,3.35,0,.73.18,1,.93.94,2.32,0,4.63,0,7,0,.75,0,.93.21.94.94,0,3,.06,3-2.93,3-3.32,0-6.63,0-10,0-.82,0-1.1-.19-1.08-1C646.38,98,646.35,94.73,646.35,91.46Z"/><path class="cls-5" d="M634.46,89.53c0,2.47,0,4.94,0,7.41,0,1,.18,1.32,1.22,1.28,2-.09,3.91,0,5.87,0,.75,0,.92.24.93.95,0,3.16.06,3.16-3.14,3.16-3,0-5.91,0-8.86,0-.8,0-1.1-.16-1.1-1q.06-9.73,0-19.47c0-.79.15-1.16,1-1.09a24.82,24.82,0,0,0,3.11,0c.73,0,1,.2,1,.94C634.43,84.28,634.46,86.91,634.46,89.53Z"/><path class="cls-3" d="M7.25,102.75a2.82,2.82,0,0,1,1.41-.12H36.89c.52,0,1,0,1.55,0h.18a.84.84,0,0,1,.05.17c-.31,0-.63.1-.94.1H8.19A7.52,7.52,0,0,1,7.25,102.75Z"/><path class="cls-3" d="M50.16,102.78c0-.06,0-.12,0-.19l29.77,0a2.82,2.82,0,0,1,1.41.12,7.5,7.5,0,0,1-.81.11H50.87A5.71,5.71,0,0,1,50.16,102.78Z"/><path class="cls-3" d="M33.46,62.9q0-11.08,0-22.18,0-8.23,0-16.47c0-.41-.18-.88.2-1.24l0,38.5C33.63,62,33.77,62.47,33.46,62.9Z"/><path class="cls-4" d="M69.14,89.94V51.21c.43.29.24.73.24,1.09q0,18.28,0,36.55C69.38,89.22,69.57,89.66,69.14,89.94Z"/><path class="cls-4" d="M69.13,40.88q0-14,0-28c.42.35.23.82.23,1.23q0,12.76,0,25.54C69.38,40.08,69.61,40.56,69.13,40.88Z"/><path class="cls-4" d="M33.65,23c.3-.38.73-.24,1.11-.24H54.6c.38,0,.81-.14,1.11.24Z"/><path class="cls-4" d="M69.15,12.91H51.57c-.38,0-.8.13-1.14-.19l18,0C68.67,12.68,69,12.62,69.15,12.91Z"/><path class="cls-4" d="M55.76,61.47c.28.3.19.68.19,1q0,8.15,0,16.3c0,.38.16.81-.27,1.09q0-8.44,0-16.88C55.72,62.5,55.75,62,55.76,61.47Z"/><path class="cls-4" d="M55.71,23c.43.39.23.9.24,1.35q0,8.28,0,16.56c-.47-.32-.24-.8-.24-1.2Q55.7,31.33,55.71,23Z"/><path class="cls-3" d="M46.12,79.84h-12a1.23,1.23,0,0,1-.44-.16H46.11A.86.86,0,0,1,46.12,79.84Z"/><path class="cls-3" d="M50.15,102.4a5,5,0,0,1-.14-2.11c0-2.94,0-5.88,0-8.82,0-.42-.14-.87.16-1.26Q50.17,96.3,50.15,102.4Z"/><path class="cls-5" d="M44.91,51.13l-.22.09C44.72,51.09,44.78,51,44.91,51.13Z"/><path class="cls-5" d="M44.69,61.23l.22.09C44.78,61.42,44.72,61.35,44.69,61.23Z"/><path class="cls-5" d="M55.48,61.32c.15,0,.22,0,.22.17Z"/><path class="cls-5" d="M33.65,79.65c-.15,0-.21-.07-.17-.21Z"/><path class="cls-5" d="M46.12,79.84a.86.86,0,0,0,0-.16l.24.14-.11,0Z"/><path class="cls-3" d="M20.2,89.93c-.38-.36-.21-.83-.21-1.24Q20,51.33,20,14c0-.41-.19-.88.22-1.23Q20.21,51.33,20.2,89.93Z"/><path class="cls-5" d="M38.45,12.63l.16-.18C38.65,12.59,38.58,12.64,38.45,12.63Z"/><path class="cls-5" d="M38.59,90.19a.32.32,0,0,1-.14-.14C38.57,90,38.62,90.07,38.59,90.19Z"/><path class="cls-5" d="M38.62,102.59h-.18l.17-.18A.18.18,0,0,1,38.62,102.59Z"/></g></g></svg>