<svg xmlns="http://www.w3.org/2000/svg" viewBox="0 0 451.92 138.56"><defs><style>.cls-1{fill:#231f20;}</style></defs><title>onlytextlogo</title><g id="Layer_2" data-name="Layer 2"><g id="Layer_1-2" data-name="Layer 1"><path class="cls-1" d="M24.2,27.79l-5.62-2.47c-3.6-1.65-5.77-2.85-5.77-5.69,0-3.3,2.85-4.8,6.14-4.8,4.05,0,7,2.1,9.44,5.7l6.89-5.32C32.36,9.81,26.82,5.84,19,5.84c-9.29,0-16.4,5.47-16.4,14,0,7,4.94,11,12,14.23l5.32,2.4c3.9,1.8,6.29,2.92,6.29,6.14,0,3.45-2.69,5.47-7,5.47-5.92,0-9.44-3.44-12.13-7.19L0,46.14A21.33,21.33,0,0,0,19.1,57.08c9.82,0,17.31-5.62,17.31-14.83C36.41,35.21,32,31.24,24.2,27.79Z"/><path class="cls-1" d="M65.84,18.28c-5.17,0-9.36,1.95-11.91,5.47V19.1H44.64V69.67H54.75V52.59a14.79,14.79,0,0,0,11.09,4.49c10.49,0,18-8.31,18-19.48S76.33,18.28,65.84,18.28ZM64,47.87c-4.72,0-9.37-3.22-9.37-10.27S59.32,27.42,64,27.42c5.31,0,9.58,4,9.58,10.26S69.21,47.87,64,47.87Z"/><path class="cls-1" d="M107,18.28a20.09,20.09,0,0,0-16.18,7.64L96,32.14c3.07-3.22,5.84-5.1,9.81-5.1,4.57,0,6.9,2.48,6.9,6.52v1.65h-9.29c-8.54,0-14,4-14,10.78,0,6.3,4.72,11.09,12.81,11.09a15.21,15.21,0,0,0,11.31-4.49v3.59h9.29v-22C122.84,23.6,116.4,18.28,107,18.28Zm5.77,24c0,4.34-3.53,7.34-7.79,7.34-3.15,0-5.32-1.5-5.32-4.05s1.87-3.75,5.17-3.75h7.94Z"/><path class="cls-1" d="M141.86,23.6V19.1h-9.29V56.18h10.11V37.68c0-6.67,4.12-9.66,10-9.66h2.69V19.1a10.55,10.55,0,0,0-3.29-.45A12.6,12.6,0,0,0,141.86,23.6Z"/><polygon class="cls-1" points="198.19 56.18 183.13 35.51 197.06 19.1 185.08 19.1 171.74 34.98 171.74 0 161.63 0 161.63 56.18 171.74 56.18 171.74 35.73 186.65 56.18 198.19 56.18"/><path class="cls-1" d="M213.69,52.59a14.76,14.76,0,0,0,11.08,4.49c10.49,0,18-8.31,18-19.48s-7.49-19.32-18-19.32c-5.17,0-9.36,1.95-11.91,5.47V19.1h-9.29V69.67h0v21c-2.55-2.85-6.44-4.42-11.09-4.42-10.49,0-18,8.24-18,19.4s7.49,19.4,18,19.4c5.17,0,9.37-2,11.91-5.54v4.65h9.29V68h0Zm9.21-25.17c5.32,0,9.59,4,9.59,10.26s-4.35,10.19-9.59,10.19c-4.72,0-9.36-3.22-9.36-10.27S218.26,27.42,222.9,27.42Zm-28.54,88.44c-5.31,0-9.58-4-9.58-10.26s4.34-10.19,9.58-10.19c4.65,0,9.37,3.22,9.37,10.26S199,115.86,194.36,115.86Z"/><rect class="cls-1" x="250.69" width="10.11" height="56.18"/><path class="cls-1" d="M287.61,57.08c9.67,0,17-6.74,17-17.23V19.1H294.5V40.68a7,7,0,1,1-13.93,0V19.1H270.46V39.85C270.46,50.34,277.8,57.08,287.61,57.08Z"/><path class="cls-1" d="M331.5,61.43c-4.79,0-8.39-2-12.06-4.8l-5.32,7a26.6,26.6,0,0,0,18.21,6.9c11.16,0,19.17-6,19.17-18.51v-33h-9.29v4.65c-2.54-3.52-6.74-5.47-12.13-5.47-10.11,0-17.75,7.19-17.75,18.35,0,11,7.56,18.43,17.75,18.43,4.64,0,8.69-1.57,11.31-4.42v2C341.39,58.66,337.2,61.43,331.5,61.43Zm.68-14.91c-5.17,0-9.59-3.82-9.59-10s4.34-9.67,9.59-9.67c4.64,0,9.36,2.77,9.36,9.59S336.9,46.52,332.18,46.52Z"/><path class="cls-1" d="M241,86.27a19.12,19.12,0,0,0-19.4,19.4c0,10.94,8.53,19.4,20.3,19.4a22.59,22.59,0,0,0,14.83-5.54l-4.2-6.89a16.33,16.33,0,0,1-10.33,3.75c-5.32,0-9.22-2.63-10.49-7.35h26.07a25.9,25.9,0,0,0,.67-5.54C258.48,93.91,251.44,86.27,241,86.27Zm-9.29,15.66c1.2-4.65,4.64-7.49,8.91-7.49s7.94,2.77,8,7.49Z"/><path class="cls-1" d="M282.37,101.93l-3.6-1.5c-2.69-1.05-3.89-1.8-3.89-3.3,0-1.8,1.57-2.62,4-2.62A12.24,12.24,0,0,1,287.16,98l5.1-6.21a17.25,17.25,0,0,0-13.34-5.62c-7.86,0-13.63,4-13.63,11.16,0,5.84,3.82,8.76,10.11,11.31l4,1.65c2.25,1,3.82,1.65,3.82,3.37,0,2.1-2.17,3.07-4.72,3.07-4,0-7.41-2-10.41-5L263,117.88a18.9,18.9,0,0,0,15.35,7.19c8.1,0,14.46-4.19,14.46-11.83C292.78,107.47,289,104.62,282.37,101.93Z"/><rect class="cls-1" x="300.42" y="87.1" width="10.11" height="37.08"/><path class="cls-1" d="M305.51,67.32A6.26,6.26,0,1,0,312,73.61,6.33,6.33,0,0,0,305.51,67.32Z"/><path class="cls-1" d="M348.51,91.74c-2.55-3.52-6.75-5.47-12.14-5.47-10.11,0-17.75,7.19-17.75,18.35s7.56,18.43,17.75,18.43c4.64,0,8.69-1.57,11.31-4.42v2c0,6-4.19,8.77-9.89,8.77-4.79,0-8.39-1.95-12.06-4.8l-5.32,7a26.64,26.64,0,0,0,18.21,6.89c11.16,0,19.17-6,19.17-18.5v-33h-9.28Zm-10,22.77c-5.17,0-9.59-3.82-9.59-10s4.34-9.66,9.59-9.66c4.64,0,9.36,2.77,9.36,9.58S343.19,114.51,338.47,114.51Z"/><path class="cls-1" d="M388,86.27a15.1,15.1,0,0,0-10.87,4.2V87.1h-9.28v37.08h10.11V102.53a6.81,6.81,0,0,1,7-7.2c4.12,0,6.89,2.93,6.89,7.2v21.65h10v-23C401.91,92.26,396.67,86.27,388,86.27Z"/><path class="cls-1" d="M427.67,101.93l-3.59-1.5c-2.7-1.05-3.9-1.8-3.9-3.3,0-1.8,1.57-2.62,4-2.62A12.27,12.27,0,0,1,432.47,98l5.09-6.21a17.24,17.24,0,0,0-13.33-5.62c-7.87,0-13.64,4-13.64,11.16,0,5.84,3.82,8.76,10.12,11.31l4,1.65c2.24,1,3.82,1.65,3.82,3.37,0,2.1-2.18,3.07-4.72,3.07-4,0-7.42-2-10.42-5l-5.09,6.14a18.92,18.92,0,0,0,15.36,7.19c8.09,0,14.45-4.19,14.45-11.83C438.08,107.47,434.34,104.62,427.67,101.93Z"/><path class="cls-1" d="M447.2,76.71a4.72,4.72,0,1,0,4.72,4.72A4.72,4.72,0,0,0,447.2,76.71Zm0,9a4.23,4.23,0,1,1,4.22-4.23A4.24,4.24,0,0,1,447.2,85.66Z"/><path class="cls-1" d="M448.48,80.43a1.1,1.1,0,0,0-1.21-1.1h-1.34v3.79h.45V81.53h.81l1.18,1.59h.52l-1.2-1.64A1.05,1.05,0,0,0,448.48,80.43Zm-2.1.7v-1.4h.87a.7.7,0,1,1,0,1.4Z"/></g></g></svg>