<svg width="142" height="51" viewBox="0 0 142 51" fill="none" xmlns="http://www.w3.org/2000/svg">
<path d="M7.061 23.276C10.488 23.276 12.742 21.206 12.742 18.423C12.742 15.87 11.178 14.214 8.51 13.478L6.601 12.949C5.244 12.558 4.531 12.006 4.554 10.994C4.577 10.005 5.497 9.476 6.67 9.476C7.659 9.476 8.717 9.982 9.085 11.362H12.397C12.282 8.924 10.189 6.394 6.67 6.394C3.404 6.394 1.196 8.211 1.196 11.224C1.219 13.708 2.875 15.318 5.474 16.054L7.199 16.56C8.763 16.997 9.384 17.641 9.384 18.538C9.384 19.573 8.418 20.194 7.061 20.194C5.589 20.194 4.37 19.412 4.117 17.94H0.782C0.897 20.608 3.151 23.276 7.061 23.276ZM18.1456 27.807V21.712C18.6746 22.448 19.8936 23.253 21.4806 23.253C24.5396 23.253 26.8856 20.493 26.8856 17.25C26.8856 14.007 24.5396 11.247 21.4806 11.247C19.8936 11.247 18.6746 12.052 18.1456 12.788V11.5H14.9946V27.807H18.1456ZM20.7906 20.378C19.0426 20.378 17.8926 19.067 17.8926 17.25C17.8926 15.433 19.0426 14.122 20.7906 14.122C22.5386 14.122 23.6886 15.433 23.6886 17.25C23.6886 19.067 22.5386 20.378 20.7906 20.378ZM33.8589 23.253C35.4459 23.253 36.6419 22.448 37.1709 21.712V23H40.3219V11.5H37.1709V12.788C36.6419 12.052 35.4459 11.247 33.8589 11.247C30.7999 11.247 28.4539 14.007 28.4539 17.25C28.4539 20.493 30.7999 23.253 33.8589 23.253ZM34.5259 20.378C32.7779 20.378 31.6279 19.067 31.6279 17.25C31.6279 15.433 32.7779 14.122 34.5259 14.122C36.2739 14.122 37.4239 15.433 37.4239 17.25C37.4239 19.067 36.2739 20.378 34.5259 20.378ZM43.3852 23H46.5362V17.503C46.5362 15.594 47.5252 14.444 49.0202 14.444C49.5492 14.444 49.9632 14.536 50.4462 14.697V11.5C50.0552 11.385 49.7332 11.362 49.3882 11.362C48.1002 11.362 46.9272 12.213 46.5362 13.34V11.5H43.3852V23ZM60.3024 23H64.1894L58.5774 16.675L63.1314 11.5H59.3364L55.6104 15.732V5.75H52.4594V23H55.6104V17.71L60.3024 23ZM68.3907 27.807V21.712C68.9197 22.448 70.1387 23.253 71.7257 23.253C74.7847 23.253 77.1307 20.493 77.1307 17.25C77.1307 14.007 74.7847 11.247 71.7257 11.247C70.1387 11.247 68.9197 12.052 68.3907 12.788V11.5H65.2397V27.807H68.3907ZM71.0357 20.378C69.2877 20.378 68.1377 19.067 68.1377 17.25C68.1377 15.433 69.2877 14.122 71.0357 14.122C72.7837 14.122 73.9337 15.433 73.9337 17.25C73.9337 19.067 72.7837 20.378 71.0357 20.378ZM79.435 23H82.586V5.75H79.435V23ZM89.7978 23.253C91.2698 23.253 92.3278 22.609 92.9488 21.689V23H96.0998V11.5H92.9488V17.112C92.9488 19.343 91.9828 20.378 90.5798 20.378C89.1998 20.378 88.6248 19.389 88.6248 17.641V11.5H85.4738V18.17C85.4738 21.206 87.0378 23.253 89.7978 23.253ZM104.492 28.037C107.482 28.037 110.311 26.45 110.311 22.287V11.5H107.16V12.788C106.539 11.891 105.297 11.247 103.825 11.247C100.812 11.247 98.3972 13.823 98.3972 17.066C98.3972 20.286 100.812 22.862 103.825 22.862C105.297 22.862 106.539 22.195 107.16 21.344V22.701C107.16 24.518 105.941 25.415 104.561 25.415C103.204 25.415 102.353 24.84 101.962 23.713H98.8802C99.1332 26.174 101.226 28.037 104.492 28.037ZM104.492 20.01C102.905 20.01 101.571 18.814 101.571 17.066C101.571 15.295 102.905 14.122 104.492 14.122C106.079 14.122 107.413 15.295 107.413 17.066C107.413 18.814 106.079 20.01 104.492 20.01Z" fill="white"/>
<path d="M62.1869 45.253C63.7739 45.253 64.9699 44.448 65.4989 43.712V45H68.6499V27.75H65.4989V34.788C64.9699 34.052 63.7739 33.247 62.1869 33.247C59.1279 33.247 56.7819 36.007 56.7819 39.25C56.7819 42.493 59.1279 45.253 62.1869 45.253ZM62.8539 42.378C61.1059 42.378 59.9559 41.067 59.9559 39.25C59.9559 37.433 61.1059 36.122 62.8539 36.122C64.6019 36.122 65.7519 37.433 65.7519 39.25C65.7519 41.067 64.6019 42.378 62.8539 42.378ZM77.0033 45.253C79.9243 45.253 82.2243 43.574 82.8913 41.251H79.6023C79.2343 42.056 78.2683 42.516 77.1643 42.516C75.1863 42.516 74.1743 41.343 74.0593 39.986H83.0293C83.2133 35.662 80.3843 33.247 77.0263 33.247C73.5303 33.247 70.9773 35.8 70.9773 39.227C70.9773 42.723 73.4843 45.253 77.0033 45.253ZM76.9343 35.8C77.9923 35.8 79.2113 36.375 79.5793 37.916H74.1743C74.4733 36.628 75.4623 35.8 76.9343 35.8ZM89.7636 45.253C92.5466 45.253 94.5706 43.919 94.5706 41.757C94.5706 39.94 93.6506 38.767 91.3736 38.192L89.3496 37.64C88.6366 37.479 88.0386 37.226 88.0386 36.582C88.0386 36.03 88.5906 35.708 89.3956 35.708C90.1086 35.708 90.7526 35.984 90.9136 36.881H94.0876C93.9036 34.581 91.9486 33.247 89.4416 33.247C86.5896 33.247 84.8186 34.673 84.8186 36.651C84.8186 38.33 85.7156 39.687 87.7396 40.216L89.9016 40.768C90.9136 41.021 91.3506 41.297 91.3506 41.918C91.3506 42.47 90.8446 42.838 89.8556 42.838C88.8436 42.838 87.9696 42.355 87.8546 41.343H84.5656C84.6806 43.597 86.7966 45.253 89.7636 45.253ZM98.411 31.614C99.538 31.614 100.435 30.717 100.435 29.613C100.435 28.509 99.538 27.612 98.411 27.612C97.33 27.612 96.41 28.509 96.41 29.613C96.41 30.717 97.33 31.614 98.411 31.614ZM96.847 45H99.998V33.5H96.847V45ZM108.383 50.037C111.373 50.037 114.202 48.45 114.202 44.287V33.5H111.051V34.788C110.43 33.891 109.188 33.247 107.716 33.247C104.703 33.247 102.288 35.823 102.288 39.066C102.288 42.286 104.703 44.862 107.716 44.862C109.188 44.862 110.43 44.195 111.051 43.344V44.701C111.051 46.518 109.832 47.415 108.452 47.415C107.095 47.415 106.244 46.84 105.853 45.713H102.771C103.024 48.174 105.117 50.037 108.383 50.037ZM108.383 42.01C106.796 42.01 105.462 40.814 105.462 39.066C105.462 37.295 106.796 36.122 108.383 36.122C109.97 36.122 111.304 37.295 111.304 39.066C111.304 40.814 109.97 42.01 108.383 42.01ZM117.242 45H120.393V39.388C120.393 37.18 121.474 36.122 122.946 36.122C124.257 36.122 124.97 37.134 124.97 38.79V45H128.121V38.261C128.121 35.271 126.465 33.247 123.682 33.247C122.187 33.247 121.014 33.891 120.393 34.811V33.5H117.242V45ZM135.449 45.253C138.232 45.253 140.256 43.919 140.256 41.757C140.256 39.94 139.336 38.767 137.059 38.192L135.035 37.64C134.322 37.479 133.724 37.226 133.724 36.582C133.724 36.03 134.276 35.708 135.081 35.708C135.794 35.708 136.438 35.984 136.599 36.881H139.773C139.589 34.581 137.634 33.247 135.127 33.247C132.275 33.247 130.504 34.673 130.504 36.651C130.504 38.33 131.401 39.687 133.425 40.216L135.587 40.768C136.599 41.021 137.036 41.297 137.036 41.918C137.036 42.47 136.53 42.838 135.541 42.838C134.529 42.838 133.655 42.355 133.54 41.343H130.251C130.366 43.597 132.482 45.253 135.449 45.253Z" fill="white"/>
</svg>
