<svg xmlns="http://www.w3.org/2000/svg" viewBox="0 0 372.56 196.61"><defs><style>.cls-1{fill:#5c61c4;}.cls-2{fill:none;}.cls-3{fill:#1e0e5a;}.cls-4{fill:#718cff;}.cls-5{fill:#8da3ff;}</style></defs><title>sp logo</title><g id="Layer_2" data-name="Layer 2"><g id="Layer_1-2" data-name="Layer 1"><polygon class="cls-1" points="5.14 63.35 0 72.97 10.95 66.45 5.14 63.35"/><polygon class="cls-2" points="61.57 93.5 61.56 93.49 56.42 103.12 56.42 103.12 61.57 93.5"/><polygon class="cls-3" points="61.56 93.49 61.57 93.5 111.52 0 5.14 63.35 10.95 66.45 106.38 9.63 61.56 93.49"/><polygon class="cls-4" points="106.38 9.63 10.95 66.45 61.56 93.49 106.38 9.63"/><polygon class="cls-2" points="56.41 103.12 56.41 103.12 61.56 93.5 61.55 93.49 56.41 103.12"/><polygon class="cls-5" points="61.56 93.5 61.56 93.49 10.95 66.45 0 72.97 56.41 103.12 56.41 103.12 107.03 130.16 117.98 123.64 61.56 93.5"/><polygon class="cls-3" points="56.41 103.12 56.41 103.12 6.46 196.61 112.83 133.27 107.03 130.16 11.6 186.99 56.41 103.12"/><polygon class="cls-4" points="11.6 186.99 107.03 130.16 56.41 103.12 11.6 186.99"/><polygon class="cls-1" points="112.83 133.27 117.98 123.64 107.03 130.16 112.83 133.27"/><path class="cls-3" d="M149,109.3v-5a17,17,0,0,0,10.13,3.53c4.64,0,6.38-1.7,6.38-4.15s-2.19-3.44-6.29-5.14c-6-2.5-8.93-4.59-8.93-9.9,0-4.78,4.55-8.13,10.94-8.13a13.06,13.06,0,0,1,7.54,2.32v5.23a12,12,0,0,0-8-2.91c-3.3,0-5.49,1.25-5.49,3.49,0,2.67,2,3.52,6.11,5.22,6.07,2.5,9.11,4.55,9.11,9.86,0,5-4.51,8.7-11.38,8.7C154.1,112.42,150.71,110.82,149,109.3Z"/><path class="cls-3" d="M176.51,88.64h4.82v2.23a11.11,11.11,0,0,1,7.76-2.9,12.21,12.21,0,0,1,0,24.41,10.09,10.09,0,0,1-7.76-3.12v11.91h-4.82Zm20,11.56c0-4.38-3-8-7.28-8s-8.12,2.9-8.12,8,3.79,7.9,8.12,7.9S196.46,104.57,196.46,100.2Z"/><path class="cls-3" d="M204.72,100.2A11.9,11.9,0,0,1,216.77,88a11.13,11.13,0,0,1,7.77,2.9V88.64h4.77v23.07h-4.86l0-2.37a10.33,10.33,0,0,1-7.72,3A11.86,11.86,0,0,1,204.72,100.2Zm20.08,0c0-5-3.39-7.9-7.67-7.9a7.93,7.93,0,0,0,0,15.85C221.41,108.1,224.8,105.19,224.8,100.15Z"/><path class="cls-3" d="M236.5,88.59h4.82v4.46c1.07-2.81,4.55-5.13,9.46-5.13v4c-5.84,0-9.37,3.35-9.46,8.26v11.56H236.5Z"/><path class="cls-3" d="M261.77,100.2,259.62,102v9.68H254.8V81.41l4.82-.81V96.76l9.73-8.12h6.25l-10.26,8.61,12.05,14.46h-6.21Z"/><path class="cls-3" d="M280.51,88.64h4.82v2.23A11.13,11.13,0,0,1,293.1,88a12.21,12.21,0,0,1,0,24.41,10.12,10.12,0,0,1-7.77-3.12v11.91h-4.82Zm20,11.56c0-4.38-3-8-7.28-8s-8.12,2.9-8.12,8,3.79,7.9,8.12,7.9S300.47,104.57,300.47,100.2Z"/><path class="cls-3" d="M310.51,81.41l4.82-.81v31.11h-4.82Z"/><path class="cls-3" d="M322,102.38V88.64h4.82v13.88s-.27,5.66,5.67,5.66,5.67-5.66,5.67-5.66V88.64H343v13.74c0,9.82-7.59,10-10.49,10S322,112.2,322,102.38Z"/><path class="cls-3" d="M350.06,119.39v-4.33a16.64,16.64,0,0,0,9.06,2.41c5.22,0,8.53-2.14,8.53-7.54v-.54a10.34,10.34,0,0,1-7.68,3A12.21,12.21,0,0,1,360,88a11.13,11.13,0,0,1,7.77,2.9V88.64h4.82l-.09,20.66c0,6.74-3.62,12.45-13.17,12.45C352.56,121.75,350.06,119.39,350.06,119.39ZM368,100.15c0-5-3.39-7.9-7.67-7.9a7.93,7.93,0,0,0,0,15.85C364.61,108.1,368,105.19,368,100.15Z"/></g></g></svg>